<?xml version="1.0" encoding="UTF-8"?>
<svg xmlns="http://www.w3.org/2000/svg" xmlns:xlink="http://www.w3.org/1999/xlink" width="30pt" height="30pt" viewBox="0 0 30 30" version="1.1">
<g id="surface1">
<path style=" stroke:none;fill-rule:nonzero;fill:rgb(100%,100%,100%);fill-opacity:1;" d="M 22.457031 14.917969 C 22.457031 11.933594 20.800781 9.449219 18.316406 8.289062 L 18.316406 11.933594 L 22.457031 16.078125 C 22.457031 15.582031 22.457031 15.25 22.457031 14.917969 Z M 26.601562 14.917969 C 26.601562 16.410156 26.269531 17.902344 25.773438 19.226562 L 28.257812 21.710938 C 29.417969 19.722656 29.917969 17.238281 29.917969 14.75 C 29.917969 7.625 24.945312 1.65625 18.316406 0.164062 L 18.316406 3.644531 C 23.121094 5.304688 26.601562 9.613281 26.601562 14.917969 Z M 2.238281 0 L 0.0820312 2.15625 L 7.871094 9.945312 L 0.0820312 9.945312 L 0.0820312 19.890625 L 6.710938 19.890625 L 15 28.175781 L 15 17.070312 L 22.128906 24.199219 C 20.964844 25.027344 19.804688 25.691406 18.316406 26.1875 L 18.316406 29.667969 C 20.636719 29.171875 22.625 28.175781 24.449219 26.683594 L 27.761719 30 L 29.917969 27.84375 L 15 12.929688 Z M 15 1.65625 L 11.519531 5.136719 L 15 8.617188 Z M 15 1.65625 "/>
</g>
</svg>
