<?xml version="1.0" encoding="UTF-8"?>
<svg xmlns="http://www.w3.org/2000/svg" xmlns:xlink="http://www.w3.org/1999/xlink" width="30pt" height="30pt" viewBox="0 0 30 30" version="1.1">
<g id="surface1">
<path style=" stroke:none;fill-rule:nonzero;fill:rgb(100%,100%,100%);fill-opacity:1;" d="M 22.5 15 C 22.5 12.058594 20.800781 9.515625 18.332031 8.292969 L 18.332031 21.714844 C 20.800781 20.484375 22.5 17.941406 22.5 15 Z M 22.5 15 "/>
<path style=" stroke:none;fill-rule:nonzero;fill:rgb(100%,100%,100%);fill-opacity:1;" d="M 0 10 L 0 20 L 6.667969 20 L 15 28.332031 L 15 1.667969 L 6.667969 10 Z M 0 10 "/>
<path style=" stroke:none;fill-rule:nonzero;fill:rgb(100%,100%,100%);fill-opacity:1;" d="M 18.332031 0.382812 L 18.332031 3.824219 C 23.148438 5.257812 26.667969 9.714844 26.667969 15 C 26.667969 20.285156 23.148438 24.742188 18.332031 26.175781 L 18.332031 29.617188 C 25.007812 28.101562 30 22.140625 30 15 C 30 7.859375 25.007812 1.898438 18.332031 0.382812 Z M 18.332031 0.382812 "/>
</g>
</svg>
